# xmcd
#
# Track frame offsets:
#	150
#	21004
#	38990
#	58344
#	79927
#	100643
#	119957
#	141751
#	163345
#	184154
#	202072
#
# Disc length: 2913 seconds
#
# Revision: 0
# Processed by: cddbd v1.5.2PL0 Copyright (c) Steve Scherf et al.
# Submitted via: audiograbber 1.83.01
#
DISCID=a50b5f0b
DTITLE=Lisa Stansfield - The Moment
DYEAR=2004
DGENRE=Soul
TTITLE0=Easier
TTITLE1=Treat Me Like A Woman
TTITLE2=When Love Breaks Down
TTITLE3=Say It To Me Now
TTITLE4=He Touches Me
TTITLE5=Lay Your Hands On Me
TTITLE6=The Moment
TTITLE7=If I Hadn't Got You
TTITLE8=Tske My Heart
TTITLE9=Love Without A Name
TTITLE10=Takes A Woman To Know
EXTD=
EXTT0=
EXTT1=
EXTT2=
EXTT3=
EXTT4=
EXTT5=
EXTT6=
EXTT7=
EXTT8=
EXTT9=
EXTT10=
PLAYORDER=
